HIERARCHY
ROOT Pelvis
{
	OFFSET 0.000000 0.000000 0.000000
	CHANNELS 6 Xposition Yposition Zposition Xrotation Yrotation Zrotation
	JOINT LeftUpLeg_virtual
	{
		OFFSET 0.000000 0.000000 0.000000
		CHANNELS 3 Xrotation Yrotation Zrotation
		JOINT LeftUpLeg
		{
			OFFSET 18.735201 -5.666702 -4.541200
			CHANNELS 3 Xrotation Yrotation Zrotation
			JOINT LeftLeg
			{
				OFFSET -0.021200 -31.938179 0.493100
				CHANNELS 3 Xrotation Yrotation Zrotation
				JOINT LeftFoot
				{
					OFFSET 0.021200 -31.938179 -4.336299
					CHANNELS 3 Xrotation Yrotation Zrotation
					JOINT LeftToeBase
					{
						OFFSET 0.943001 -26.722000 15.023500
						CHANNELS 3 Xrotation Yrotation Zrotation
						End Site
						{
							OFFSET 0 0 0
						}
					}
				}
			}
		}
	}
	JOINT RightUpLeg_virtual
	{
		OFFSET 0.000000 0.000000 0.000000
		CHANNELS 3 Xrotation Yrotation Zrotation
		JOINT RightUpLeg
		{
			OFFSET -18.735201 -5.666702 -4.541200
			CHANNELS 3 Xrotation Yrotation Zrotation
			JOINT RightLeg
			{
				OFFSET 0.018946 -31.938133 0.493100
				CHANNELS 3 Xrotation Yrotation Zrotation
				JOINT RightFoot
				{
					OFFSET -0.018946 -31.938126 -4.336299
					CHANNELS 3 Xrotation Yrotation Zrotation
					JOINT RightToeBase
					{
						OFFSET -0.943001 -26.722004 15.023500
						CHANNELS 3 Xrotation Yrotation Zrotation
						End Site
						{
							OFFSET 0 0 0
						}
					}
				}
			}
		}
	}
	JOINT Hips_virtual
	{
		OFFSET 0.000000 0.000000 0.000000
		CHANNELS 3 Xrotation Yrotation Zrotation
		JOINT Hips
		{
			OFFSET -0.000000 -0.000000 -0.000000
			CHANNELS 3 Xrotation Yrotation Zrotation
			JOINT Spine
			{
				OFFSET 0.000000 10.199997 -0.299500
				CHANNELS 3 Xrotation Yrotation Zrotation
				JOINT Spine1
				{
					OFFSET 0.000000 11.900002 -1.516600
					CHANNELS 3 Xrotation Yrotation Zrotation
					JOINT Spine2
					{
						OFFSET 0.000000 13.600006 -2.842500
						CHANNELS 3 Xrotation Yrotation Zrotation
						JOINT Neck_virtual
						{
							OFFSET 0.000000 0.000000 0.000000
							CHANNELS 3 Xrotation Yrotation Zrotation
							JOINT Neck
							{
								OFFSET 0.000000 9.624100 -2.890100
								CHANNELS 3 Xrotation Yrotation Zrotation
								JOINT Head
								{
									OFFSET 0.000000 14.068802 -1.351900
									CHANNELS 3 Xrotation Yrotation Zrotation
									End Site
									{
										OFFSET 0 0 0
									}
								}
							}
						}
						JOINT LeftShoulder_virtual
						{
							OFFSET 0.000000 0.000000 0.000000
							CHANNELS 3 Xrotation Yrotation Zrotation
							JOINT LeftShoulder
							{
								OFFSET 15.263000 10.923401 -0.547700
								CHANNELS 3 Xrotation Yrotation Zrotation
								JOINT LeftArm
								{
									OFFSET 25.438599 -2.830597 -13.032500
									CHANNELS 3 Xrotation Yrotation Zrotation
									JOINT LeftForeArm
									{
										OFFSET 29.960503 0.000000 0.000000
										CHANNELS 3 Xrotation Yrotation Zrotation
										JOINT LeftHand
										{
											OFFSET 27.849251 0.000000 0.000000
											CHANNELS 3 Xrotation Yrotation Zrotation
											End Site
											{
												OFFSET 0 0 0
											}
										}
									}
								}
							}
						}
						JOINT RightShoulder_virtual
						{
							OFFSET 0.000000 0.000000 0.000000
							CHANNELS 3 Xrotation Yrotation Zrotation
							JOINT RightShoulder
							{
								OFFSET -15.263000 10.923401 -0.547700
								CHANNELS 3 Xrotation Yrotation Zrotation
								JOINT RightArm
								{
									OFFSET -25.438599 -2.830597 -13.032500
									CHANNELS 3 Xrotation Yrotation Zrotation
									JOINT RightForeArm
									{
										OFFSET -29.960503 0.000000 0.000000
										CHANNELS 3 Xrotation Yrotation Zrotation
										JOINT RightHand
										{
											OFFSET -27.849251 0.000000 0.000000
											CHANNELS 3 Xrotation Yrotation Zrotation
											End Site
											{
												OFFSET 0 0 0
											}
										}
									}
								}
							}
						}
					}
				}
			}
		}
	}
}
MOTION
Frames: 13
Frame Time: 0.03333333
-4.403651 91.120560 -4.875175 0.000000 0.000000 0.000000 5.642494 -13.419190 -3.364273 -33.273960 8.573664 11.983581 38.334245 4.191015 -0.545056 -9.984211 4.441149 -3.254781 0.000000 0.000000 0.000000 5.794369 -9.041309 0.665225 -22.852543 -7.431688 -15.091149 32.433529 1.950898 -1.150244 -17.436245 -1.633730 10.550951 0.000000 0.000000 0.000000 -0.550890 -1.277483 0.562060 -1.013990 7.939996 0.017097 6.957659 1.855806 -2.201317 2.236862 1.087959 -1.346520 0.000000 0.000000 0.000000 0.722214 0.555406 -0.180759 -1.466664 0.449576 -0.082140 0.000000 0.000000 0.000000 1.392689 1.575900 -0.370051 0.189295 0.371541 -5.987685 -11.320544 -5.005887 -53.665199 -1.575577 -42.917132 -5.888812 0.000000 0.000000 0.000000 2.398361 0.333674 -1.157639 1.296889 8.750057 0.052077 -2.489079 2.600671 52.866682 -0.289188 47.000922 6.440886 0.000000 0.000000 0.000000 
-4.457716 91.098747 -4.753624 0.000000 0.000000 0.000000 5.823465 -13.343524 -2.904644 -33.367369 8.501398 12.588260 37.801392 4.678146 -0.538373 -10.473499 4.942968 -3.009701 0.000000 0.000000 0.000000 5.449052 -10.353211 0.215792 -23.317677 -7.640206 -15.668934 32.296686 2.078685 -1.462288 -17.817245 -1.384606 10.059869 0.000000 0.000000 0.000000 -1.426964 -2.445759 -0.047950 2.009919 7.839969 0.643961 7.738037 1.491519 -2.692855 2.685553 1.225470 -1.260717 0.000000 0.000000 0.000000 0.718500 0.462276 -0.402768 -1.417538 0.552650 -0.109216 0.000000 0.000000 0.000000 1.026359 1.506368 -0.308450 0.955765 1.275657 -6.110252 -10.293178 -5.115696 -55.764065 -0.286466 -42.930553 -6.176756 0.000000 0.000000 0.000000 2.327432 0.432472 -1.470177 1.909162 9.233580 -0.609164 -1.686362 1.982665 53.639347 -1.379278 48.508331 7.865081 0.000000 0.000000 0.000000 
-4.898453 91.673462 -5.034683 0.000000 0.000000 0.000000 6.229926 -13.989619 -2.550590 -32.771319 8.309359 12.775944 37.958459 4.796251 -0.737108 -10.406985 5.178090 -3.297425 0.000000 0.000000 0.000000 5.463064 -10.625753 0.384133 -23.266826 -7.733327 -15.517520 31.926292 1.940844 -1.579833 -18.206305 -1.473451 9.709467 0.000000 0.000000 0.000000 -0.249271 -1.812936 0.446084 -0.094846 9.877364 -2.342478 8.590684 0.944400 -3.219839 2.145504 0.986451 -0.973416 0.000000 0.000000 0.000000 0.996666 0.216097 -0.201374 -1.453740 0.458323 -0.116390 0.000000 0.000000 0.000000 0.748809 1.613352 0.089059 0.797065 -0.064578 -5.526079 -12.633153 -6.074590 -55.292485 -0.761298 -43.248170 -6.211532 0.000000 0.000000 0.000000 2.400768 0.484577 -1.446565 2.377847 8.873410 -0.706134 -0.454572 0.714968 54.607188 -1.614557 45.084224 7.865743 0.000000 0.000000 0.000000 
-5.285948 91.537621 -5.118736 0.000000 0.000000 0.000000 6.812124 -13.733701 -1.756729 -32.482501 8.253727 13.752853 38.270281 5.060482 -0.765774 -10.113302 5.457065 -3.204494 0.000000 0.000000 0.000000 5.584268 -10.047672 1.017342 -22.980508 -7.741600 -14.696573 31.141903 1.896263 -1.457322 -18.711831 -1.615315 9.783197 0.000000 0.000000 0.000000 -1.198536 -1.186485 -0.140525 2.273087 9.501649 -3.098999 7.845763 0.605884 -2.909527 2.464751 1.232398 -1.367051 0.000000 0.000000 0.000000 0.909657 0.180570 -0.092884 -1.416057 0.475066 -0.084330 0.000000 0.000000 0.000000 1.061505 1.425425 -0.071977 0.637071 0.958345 -5.304375 -11.918497 -6.774974 -54.936916 -0.354958 -43.624155 -6.014426 0.000000 0.000000 0.000000 2.690010 0.640992 -1.518271 2.405469 9.017750 0.090990 -1.309667 -1.033473 54.694768 -2.287203 45.622153 8.485428 0.000000 0.000000 0.000000 
-4.706904 91.535172 -6.064396 0.000000 0.000000 0.000000 6.670806 -15.475962 -1.664882 -32.503835 7.762724 13.600655 38.317409 5.402720 -0.702740 -10.068658 5.772394 -2.905585 0.000000 0.000000 0.000000 5.704387 -10.203428 0.901080 -22.808437 -7.796968 -14.814101 31.010490 2.038600 -1.417024 -18.934574 -1.521122 9.902264 0.000000 0.000000 0.000000 0.599972 -0.523245 -0.124481 2.016883 8.743294 -2.316444 9.256453 0.745862 -3.592106 2.384606 1.134055 -1.215358 0.000000 0.000000 0.000000 1.104275 0.098729 -0.095023 -1.542071 0.587752 -0.082995 0.000000 0.000000 0.000000 1.128374 1.158942 0.048224 0.606698 0.974957 -5.486124 -12.728710 -7.246663 -53.619987 -0.632655 -43.975125 -6.020028 0.000000 0.000000 0.000000 2.550795 0.561280 -1.264016 2.895310 9.439520 -0.003615 -0.565495 -2.830525 54.728909 -3.086550 46.311688 9.235713 0.000000 0.000000 0.000000 
-4.988394 91.641830 -5.706497 0.000000 0.000000 0.000000 6.903921 -14.998225 -1.849123 -32.032283 7.971255 13.373836 38.139841 5.587517 -0.643696 -10.064802 5.949597 -2.724419 0.000000 0.000000 0.000000 6.369551 -9.870283 0.816713 -21.739558 -7.806268 -14.826688 29.464186 2.078856 -1.135827 -20.085466 -1.739150 10.250785 0.000000 0.000000 0.000000 -1.941889 -4.029467 0.287838 0.964370 11.130768 -2.431918 8.720625 0.703877 -3.386580 3.100035 1.617455 -1.090986 0.000000 0.000000 0.000000 0.531576 0.291009 -0.058616 -1.353221 0.584042 -0.114329 0.000000 0.000000 0.000000 0.397462 1.258071 -0.101053 0.407225 0.917192 -5.355350 -13.220495 -7.458528 -54.112280 -0.079828 -45.517378 -6.046039 0.000000 0.000000 0.000000 2.855009 0.645356 -1.230268 3.247374 9.448862 -0.117771 -2.017730 -2.847721 56.449389 -2.505891 44.036169 9.668920 0.000000 0.000000 0.000000 
-4.609000 91.552139 -4.198845 0.000000 0.000000 0.000000 7.374081 -14.970209 -1.977960 -31.425011 8.127783 13.176037 38.035343 6.069124 -0.762207 -10.144762 6.508308 -2.640258 0.000000 0.000000 0.000000 6.517598 -8.731388 0.974049 -21.504253 -7.540957 -14.512781 29.422228 2.308806 -0.970422 -20.067673 -1.597063 10.605765 0.000000 0.000000 0.000000 -1.568231 -3.401371 0.497053 -0.447465 10.526419 -1.736901 8.454953 1.103118 -3.352551 3.341778 0.982108 -1.056381 0.000000 0.000000 0.000000 0.949906 0.268731 0.093469 -1.243360 0.572271 -0.092342 0.000000 0.000000 0.000000 0.417518 1.247602 0.032304 0.411330 0.059171 -4.758930 -12.850437 -8.063041 -53.851684 -0.283477 -46.902287 -6.618659 0.000000 0.000000 0.000000 2.475753 0.575330 -1.298068 2.997390 8.205433 -0.312415 -0.918959 -4.586237 57.090860 -2.501366 41.776668 10.116781 0.000000 0.000000 0.000000 
-3.907642 91.263672 -4.911354 0.000000 0.000000 0.000000 7.400530 -14.889341 -1.758294 -31.427831 8.053503 13.414630 38.643209 6.133985 -1.256622 -9.684695 6.835106 -3.391182 0.000000 0.000000 0.000000 6.662796 -9.410129 0.858715 -21.371862 -7.757671 -14.727971 30.191953 2.171303 -1.057552 -19.414331 -1.564162 10.381127 0.000000 0.000000 0.000000 -1.463385 -5.022308 0.564998 0.821855 13.516102 -0.501750 9.084457 1.138907 -2.980150 2.855810 1.079106 -1.189532 0.000000 0.000000 0.000000 0.824093 0.139437 0.199041 -1.345156 0.456363 0.054091 0.000000 0.000000 0.000000 0.728710 0.966737 0.091635 0.500793 0.388909 -4.343656 -12.031504 -7.787486 -53.748360 -0.335323 -48.547711 -6.406061 0.000000 0.000000 0.000000 2.900849 0.686673 -1.506438 2.883645 8.187653 -0.428846 0.616687 -5.436396 56.705323 -2.286681 42.902331 10.114748 0.000000 0.000000 0.000000 
-4.387327 91.155190 -5.291058 0.000000 0.000000 0.000000 7.392565 -15.218001 -1.504824 -31.498514 7.883261 13.660926 38.823861 6.116607 -1.371905 -9.617954 6.876344 -3.591753 0.000000 0.000000 0.000000 6.894642 -8.749670 0.762715 -21.062647 -7.605563 -14.784759 30.840824 2.391324 -1.320098 -19.003311 -1.164041 10.129151 0.000000 0.000000 0.000000 -0.727839 -4.413929 0.989085 0.098700 13.447615 -1.589614 9.381576 0.998744 -3.140477 3.084056 1.089157 -0.995298 0.000000 0.000000 0.000000 0.753790 0.151224 0.279207 -1.338293 0.420829 0.032354 0.000000 0.000000 0.000000 0.718732 1.083510 0.127971 0.704923 0.171139 -4.196391 -13.126246 -7.582680 -52.473021 -0.602107 -47.697390 -6.407307 0.000000 0.000000 0.000000 2.766117 0.593920 -1.427410 3.153734 8.056321 -0.733377 -0.585029 -5.190302 56.632404 -2.363462 42.161983 9.993205 0.000000 0.000000 0.000000 
-4.264354 91.189651 -5.527069 0.000000 0.000000 0.000000 7.383968 -15.200465 -1.670085 -31.467132 7.932844 13.471958 38.265769 6.158437 -1.488472 -9.921205 7.014653 -3.785561 0.000000 0.000000 0.000000 6.985282 -8.598703 0.746374 -20.748245 -7.590411 -14.689876 31.051590 2.454692 -1.310521 -18.727651 -1.066176 10.170911 0.000000 0.000000 0.000000 -0.699323 -4.549060 1.230089 0.031587 12.634140 -1.808388 10.252001 0.773311 -3.288536 3.459925 0.972106 -1.064280 0.000000 0.000000 0.000000 1.014139 -0.074288 0.257266 -1.191362 0.327918 -0.058743 0.000000 0.000000 0.000000 0.756910 0.912963 0.190169 0.867288 0.280454 -4.740386 -12.842296 -6.780948 -52.145424 -1.114156 -47.647229 -6.812440 0.000000 0.000000 0.000000 3.087510 0.532081 -1.426986 3.300826 7.401150 -1.444726 -0.548570 -6.111523 56.405960 -2.195367 42.863583 9.669466 0.000000 0.000000 0.000000 
-4.210684 91.033234 -5.410812 0.000000 0.000000 0.000000 7.060463 -15.129074 -2.084260 -31.914725 8.033421 13.130769 38.033314 6.360753 -1.690059 -10.224068 7.330904 -3.995629 0.000000 0.000000 0.000000 7.077572 -8.878355 0.312542 -20.652889 -7.586703 -15.217118 31.932743 2.734117 -1.318284 -18.165595 -0.744226 10.382724 0.000000 0.000000 0.000000 -0.617840 -3.597109 1.160260 0.859714 11.982238 -1.442948 10.692050 0.650963 -3.504767 3.500749 0.941275 -0.999784 0.000000 0.000000 0.000000 0.892570 -0.190720 0.111108 -1.255505 0.304538 -0.114900 0.000000 0.000000 0.000000 0.837449 0.778505 0.201283 0.809414 0.241318 -4.836162 -13.919091 -6.460225 -52.406337 -1.311606 -48.240875 -6.909890 0.000000 0.000000 0.000000 2.932552 0.535503 -1.442328 3.392699 7.294864 -0.958736 0.154754 -5.302793 56.270203 -2.337518 44.474193 9.670122 0.000000 0.000000 0.000000 
-4.364130 91.195259 -5.568256 0.000000 0.000000 0.000000 7.315796 -16.275456 -2.087729 -31.699369 7.851688 12.999801 38.677896 6.340924 -1.929229 -9.816122 7.402571 -4.360553 0.000000 0.000000 0.000000 7.306290 -8.238326 0.183616 -20.374465 -7.433714 -15.319947 32.244838 2.877501 -1.286329 -17.998211 -0.611488 10.542805 0.000000 0.000000 0.000000 -0.783090 -4.466140 1.253987 1.927361 13.515805 -2.074689 11.261907 0.793039 -3.361993 3.708528 0.963512 -0.952620 0.000000 0.000000 0.000000 1.010758 -0.149588 0.151575 -1.269926 0.323781 -0.111593 0.000000 0.000000 0.000000 0.956481 0.860874 0.338205 0.749403 0.115711 -4.883258 -13.696889 -6.203635 -52.308170 -1.946601 -47.826395 -7.215526 0.000000 0.000000 0.000000 3.227183 0.568000 -1.494924 3.440697 7.168788 -1.408084 0.321844 -5.398526 55.940113 -2.015935 44.829735 9.238413 0.000000 0.000000 0.000000 
-4.420975 90.926620 -5.488342 0.000000 0.000000 0.000000 6.829456 -16.785048 -2.188260 -32.222842 7.643561 12.878245 38.462264 6.565593 -2.204393 -10.011369 7.772118 -4.659384 0.000000 0.000000 0.000000 7.032334 -7.884814 0.065745 -20.723619 -7.261139 -15.394159 32.520388 3.053412 -1.435596 -17.821534 -0.339341 10.433257 0.000000 0.000000 0.000000 -1.271784 -3.585939 1.048123 2.342604 13.184984 -2.323196 11.308057 1.064835 -3.514988 3.731338 0.981082 -1.002508 0.000000 0.000000 0.000000 0.691428 -0.176857 0.119945 -1.304788 0.303990 -0.111990 0.000000 0.000000 0.000000 1.103459 0.854306 0.372617 0.790043 -0.224837 -4.776992 -14.883476 -5.603391 -52.454934 -2.140775 -47.163013 -7.260208 0.000000 0.000000 0.000000 3.192440 0.562691 -1.473301 3.680270 7.259281 -1.284388 0.267325 -5.613321 55.847909 -1.843127 43.812508 9.093500 0.000000 0.000000 0.000000 
